# xmcd
#
# Track frame offsets:
#	183
#	11483
#	22933
#	34843
#	44413
#	55345
#	64128
#	77985
#	90385
#	103830
#	113428
#	125138
#	136778
#	148813
#	162393
#	174970
#	186333
#	195535
#	208620
#	218790
#
# Disc length: 3027
#
# Revision: 2
# Processed by: cddbd v1.5.1PL0 Copyright (c) Steve Scherf et al.
# Submitted via: EasyCDDAExtractor 5.0.6
# Normalized: r1:DSETVAR1
#
DISCID=1a0bd114
DTITLE=Various Artist - Big Country Classics Vol. 7
DYEAR=1988
DGENRE=Country
TTITLE0=Elvis Presley - I Forgot To Remember To Forget
TTITLE1=Sonny James - Young Love
TTITLE2=Tennessee Ernie Ford - Sixteen Tons
TTITLE3=Jim Reeves - Billy Bayou
TTITLE4=Webb Pierce - There Stands The Glass
TTITLE5=Don Gibson - Blue, Blue Day
TTITLE6=Lefty Frizzell - I Want To Be With You Always
TTITLE7=Eddy Arnold - Cattle Call
TTITLE8=Bobby Helms - My Special Angel
TTITLE9=Webb Pierce - In The Jailhouse Now
TTITLE10=Marty Robbins - The Story Of My Life
TTITLE11=Carl Smith - Loose Talk
TTITLE12=Kitty Wells - It Wasn't God Who Made Honky Tonk Angels
TTITLE13=Pee Wee King - Slow Poke
TTITLE14=Hank Snow - I'm Moving On
TTITLE15=Marty Robbins - Singing The Blues
TTITLE16=The Everly Brothers - Wake Up, Little Susie
TTITLE17=Jerry Lee Lewis - Whole Lotta Shakin' Goin' On
TTITLE18=The Everly Brothers - Bird Dog
TTITLE19=Johnny Cash - Guess Things Happen That Way
EXTD=Trax Music Ltd. TRXCD 5008\n20 Number One Hits Of The 50's
EXTT0=
EXTT1=
EXTT2=
EXTT3=
EXTT4=
EXTT5=
EXTT6=
EXTT7=
EXTT8=
EXTT9=
EXTT10=
EXTT11=
EXTT12=
EXTT13=
EXTT14=
EXTT15=
EXTT16=
EXTT17=
EXTT18=
EXTT19=
PLAYORDER=
